<svg width="37" height="40" viewBox="0 0 37 40" fill="none" xmlns="http://www.w3.org/2000/svg">
<path d="M26.7226 4C25.0047 5.50781 23.4537 7.09297 22.0794 8.68516C19.828 5.75156 17.0365 2.77578 13.875 0C5.75978 7.12266 0 16.4031 0 22C0 31.9414 8.28288 40 18.5 40C28.7171 40 37 31.9414 37 22C37 17.8383 32.707 9.25469 26.7226 4ZM25.1146 30.6133C23.3257 31.7977 21.1197 32.5 18.7362 32.5C12.7774 32.5 7.92857 28.7703 7.92857 22.7148C7.92857 19.6984 9.93632 17.0406 13.9402 12.5C14.5126 13.1234 22.1025 22.2922 22.1025 22.2922L26.9448 17.0672C27.2867 17.6023 27.598 18.1258 27.8755 18.6273C30.1344 22.7047 29.1813 27.9219 25.1146 30.6133Z" fill="black"/>
</svg>
